<svg width="58" height="57" viewBox="0 0 58 57" fill="none" xmlns="http://www.w3.org/2000/svg">
<g clip-path="url(#clip0_543_1435)">
<path d="M24.4263 42.7021C21.561 42.7021 19.2381 40.3798 19.2378 37.5146L19.2378 36.7705C15.85 34.394 13.6803 30.7424 13.6802 26.6475C13.6806 19.4861 20.315 13.6808 28.4995 13.6807C36.6841 13.6807 43.3194 19.486 43.3198 26.6475C43.3197 30.7418 41.1504 34.393 37.7632 36.7695L37.7632 37.5137C37.7632 40.3789 35.4398 42.7018 32.5747 42.7021L24.4263 42.7021ZM28.4995 30.9707C32.5918 30.9707 35.9095 27.6528 35.9097 23.5605C35.9094 19.4683 32.5918 16.1504 28.4995 16.1504C24.4074 16.1505 21.0896 19.4684 21.0894 23.5605C21.0895 27.6527 24.4073 30.9705 28.4995 30.9707ZM40.5669 32.167C41.4249 32.2118 42.268 30.0892 42.3218 26.9727C42.3754 23.8559 41.5949 22.3516 40.7368 22.3066C39.879 22.2621 39.7667 24.3192 39.6304 26.9258C39.4671 30.0468 39.7091 32.1215 40.5669 32.167ZM17.0073 32.2168C17.8664 32.2022 17.8368 30.1422 17.7925 27.5322C17.7393 24.4076 17.3535 22.3541 16.4946 22.3682C15.6355 22.3828 14.9409 24.5598 15.103 27.6728C15.2653 30.7858 16.1482 32.2314 17.0073 32.2168ZM31.6841 31.6592C31.6118 31.6411 31.5388 31.6262 31.4663 31.6094C31.5736 31.6343 31.6807 31.6604 31.7876 31.6875L31.6841 31.6592ZM32.5747 41.4678C34.7578 41.4674 36.5278 39.6968 36.5278 37.5137L36.5278 36.5029C36.5278 35.9284 36.2637 35.3853 35.812 35.0303C31.5207 31.6586 25.4794 31.6588 21.188 35.0303C20.7363 35.3854 20.4722 35.9283 20.4722 36.5029L20.4722 37.5146C20.4725 39.6978 22.2431 41.4678 24.4263 41.4678L32.5747 41.4678ZM31.5874 38.3809C31.2464 38.3809 30.9692 38.1037 30.9692 37.7627L30.9692 35.293C30.9692 34.9519 31.2464 34.6758 31.5874 34.6758C31.9283 34.6759 32.2046 34.952 32.2046 35.293L32.2046 37.7627C32.2046 38.1036 31.9283 38.3807 31.5874 38.3809ZM25.4126 38.3809C25.0716 38.3809 24.7944 38.1037 24.7944 37.7627L24.7944 35.293C24.7944 34.9519 25.0716 34.6758 25.4126 34.6758C25.7535 34.6759 26.0298 34.952 26.0298 35.293L26.0298 37.7627C26.0298 38.1036 25.7535 38.3807 25.4126 38.3809Z" fill="#FBFBFB"/>
</g>
<path d="M26.1164 0.777998C27.657 -0.260635 29.6744 -0.260635 31.215 0.777998L34.7814 3.18327C35.5628 3.71007 36.4887 3.98128 37.4308 3.96061L41.7316 3.86589C43.5892 3.82507 45.2861 4.91604 46.0207 6.62272L47.7218 10.5739C48.0944 11.4396 48.7257 12.1688 49.5295 12.6608L53.1994 14.9069C54.7838 15.8769 55.6212 17.711 55.3166 19.5436L54.6115 23.7878C54.4569 24.7173 54.5939 25.6718 55.0041 26.5202L56.8771 30.3932C57.6859 32.066 57.3988 34.063 56.1515 35.4401L53.2629 38.6286C52.6303 39.3271 52.23 40.2048 52.1164 41.1403L51.5978 45.4108C51.3738 47.2552 50.0528 48.7792 48.259 49.2633L44.1056 50.3844C43.1958 50.63 42.3847 51.152 41.7834 51.8776L39.0383 55.1891C37.8527 56.6197 35.9174 57.1881 34.1466 56.6257L30.0461 55.3239C29.1478 55.0386 28.1835 55.0386 27.2853 55.3239L23.1847 56.6257C21.4139 57.1881 19.4787 56.6197 18.2931 55.1891L15.548 51.8776C14.9467 51.152 14.1356 50.63 13.2258 50.3844L9.07243 49.2633C7.27864 48.7792 5.95758 47.2552 5.73356 45.4108L5.21501 41.1403C5.10142 40.2048 4.70107 39.3271 4.06852 38.6286L1.17985 35.4401C-0.0674505 34.063 -0.354535 32.066 0.454267 30.3932L2.32731 26.5202C2.73744 25.6718 2.87446 24.7173 2.71989 23.7878L2.01481 19.5436C1.71019 17.711 2.54759 15.8769 4.132 14.9069L7.80192 12.6608C8.60572 12.1688 9.23697 11.4395 9.60954 10.5739L11.3107 6.62272C12.0453 4.91604 13.7422 3.82507 15.5998 3.86589L19.9006 3.96061C20.8427 3.98127 21.7686 3.71006 22.55 3.18327L26.1164 0.777998ZM28.6662 7.2946C16.7271 7.2946 7.04803 16.9736 7.04802 28.9128C7.04802 40.8519 16.727 50.5309 28.6662 50.5309C40.6051 50.5307 50.2834 40.8517 50.2834 28.9128C50.2834 16.9738 40.6051 7.29485 28.6662 7.2946Z" fill="#FBFBFB"/>
<defs>
<clipPath id="clip0_543_1435">
<rect width="29.64" height="29.64" fill="white" transform="translate(43.3198 43.3198) rotate(-180)"/>
</clipPath>
</defs>
</svg>
