<svg width="24" height="24" viewBox="0 0 24 24" fill="none" xmlns="http://www.w3.org/2000/svg">
<path d="M3.73193 3.76807C4.70824 2.79176 6.29176 2.79176 7.26807 3.76807L11.9995 8.49951L16.7026 3.79736C17.6789 2.82105 19.2625 2.82105 20.2388 3.79736C21.2148 4.77358 21.2147 6.35625 20.2388 7.33252L15.5356 12.0356L20.7026 17.2026C21.6789 18.1789 21.6789 19.7625 20.7026 20.7388C19.7264 21.7147 18.1437 21.7148 17.1675 20.7388L11.9995 15.5708L6.80322 20.7681C5.82696 21.7441 4.24433 21.7441 3.26807 20.7681C2.29176 19.7918 2.29176 18.2082 3.26807 17.2319L8.46436 12.0356L3.73193 7.30322C2.75602 6.32699 2.75602 4.7443 3.73193 3.76807Z" fill="#2F2F2F"/>
</svg>
