<svg width="25" height="24" viewBox="0 0 25 24" fill="none" xmlns="http://www.w3.org/2000/svg">
<path d="M4.23162 3.76788C5.20793 2.79157 6.79144 2.79157 7.76776 3.76788L12.4992 8.49932L17.2023 3.79717C18.1786 2.82086 19.7621 2.82086 20.7385 3.79717C21.7145 4.77339 21.7144 6.35606 20.7385 7.33233L16.0353 12.0355L21.2023 17.2024C22.1786 18.1788 22.1786 19.7623 21.2023 20.7386C20.2261 21.7145 18.6434 21.7146 17.6672 20.7386L12.4992 15.5706L7.30291 20.7679C6.32665 21.7439 4.74402 21.7439 3.76776 20.7679C2.79144 19.7916 2.79144 18.2081 3.76776 17.2317L8.96404 12.0355L4.23162 7.30303C3.25571 6.3268 3.25571 4.74411 4.23162 3.76788Z" fill="#FBFBFB"/>
</svg>
