<svg width="26" height="25" viewBox="0 0 26 25" fill="none" xmlns="http://www.w3.org/2000/svg">
<path d="M8.94859 7.47744L1.83273 8.96838C1.45936 9.04661 1.3076 9.49733 1.55763 9.78546L6.30794 15.2596C6.40122 15.3671 6.44427 15.5093 6.4263 15.6505L5.48464 23.0492C5.43362 23.4501 5.85464 23.7428 6.21264 23.5553L12.768 20.1215C12.9133 20.0454 13.0867 20.0454 13.232 20.1215L19.7874 23.5553C20.1454 23.7428 20.5664 23.4501 20.5154 23.0492L19.5737 15.6505C19.5557 15.5093 19.5988 15.3671 19.6921 15.2596L24.4424 9.78546C24.6924 9.49733 24.5406 9.04661 24.1673 8.96838L17.0514 7.47744C16.9039 7.44653 16.7782 7.3507 16.7092 7.21663L13.4447 0.865195C13.2587 0.503286 12.7413 0.503286 12.5553 0.865194L9.29075 7.21663C9.22184 7.3507 9.09613 7.44653 8.94859 7.47744Z" stroke="#2F2F2F"/>
</svg>
