<svg width="24" height="24" viewBox="0 0 24 24" fill="none" xmlns="http://www.w3.org/2000/svg">
<path d="M1.04941 13.7012C1.19133 14.3229 1.96147 14.9945 2.60769 14.7924C2.99828 14.6701 3.13203 14.2239 2.86086 13.9102C2.71771 13.7446 2.46986 13.6955 2.50871 13.3896C2.5492 13.0693 3.20892 13.0084 3.46372 13.0423C4.29194 13.1519 5.74757 14.9376 6.48908 15.5286C9.74879 18.1249 14.6494 18.1147 17.7766 15.3057C18.4482 14.702 19.7169 13.0787 20.6122 13.037C20.8956 13.0239 21.4686 13.147 21.4527 13.5078C21.4375 13.8513 20.8024 13.8959 21.0134 14.4763C21.1668 14.8983 21.6694 14.911 22.033 14.7859C23.0281 14.4435 23.2829 13.1806 22.6678 12.372C22.085 11.6059 21.1263 11.4865 20.2249 11.5078C20.193 11.5086 19.9672 11.0153 19.9345 10.9601C19.8269 10.7781 19.7112 10.601 19.5872 10.4296C19.3435 10.0922 19.0686 9.77769 18.7692 9.48894C18.1717 8.91266 17.4768 8.4419 16.7337 8.07381C14.9079 7.16951 12.8044 6.84599 10.7848 7.06685C9.96515 7.15642 9.15534 7.33843 8.37701 7.61123C6.81751 8.15765 5.36679 9.09671 4.40033 10.457C4.1357 10.8296 3.90994 11.2292 3.72834 11.6484C2.40033 11.3487 0.686217 12.1114 1.04941 13.7012ZM18.4686 11.3045C18.541 11.3932 18.9206 11.8943 18.9206 11.9581C18.9206 12.0472 18.478 12.2771 18.3754 12.3523C17.6163 12.9069 17.0551 13.6771 16.3026 14.2403C15.8089 14.6096 15.2629 14.9323 14.6731 15.1212C16.4723 13.3781 16.2699 10.4505 14.224 8.99691C15.8077 9.24477 17.4478 10.0513 18.4686 11.3045ZM10.5942 9.83618C12.6359 8.63863 15.1484 10.401 14.7447 12.7217C14.5545 13.8145 13.5578 14.8525 12.4371 14.9871C9.31812 15.3617 8.03141 11.3397 10.5942 9.83618ZM5.33202 11.5965C6.34552 10.1801 8.08049 9.28771 9.77415 8.99651C9.32016 9.36788 8.9402 9.73884 8.63877 10.2493C7.69358 11.8497 8.00401 13.9233 9.40646 15.1417C9.4126 15.1732 9.36884 15.1666 9.34634 15.1613C8.98192 15.0701 8.4036 14.7188 8.08744 14.5012C7.03755 13.7785 6.24082 12.7364 5.10503 12.1347C4.96147 12.0476 5.24818 11.7135 5.33202 11.5965Z" fill="black"/>
<path d="M12.1538 22.8308C12.0392 22.8652 11.9161 22.8447 11.8626 22.7306C11.2617 21.5527 10.6343 20.3862 10.0388 19.2055C9.94722 19.0243 9.60121 18.4157 9.57708 18.2754C9.48914 17.767 10.2977 18.1282 10.5419 18.1715C11.7898 18.394 13.0761 18.3617 14.2896 17.9809C14.4941 18.0026 14.5889 18.0959 14.5321 18.3073C14.4752 18.5188 14.1726 19.0251 14.0552 19.2599C13.4846 20.3989 12.8626 21.5126 12.3137 22.6631C12.2773 22.7229 12.2237 22.81 12.1538 22.8308Z" fill="black"/>
<path d="M20.5235 20.0139C20.3796 20.0585 20.211 19.9587 20.0757 19.906C19.1857 19.5595 18.22 19.0814 17.3403 18.681C17.1256 18.5833 15.789 18 15.7321 17.9215C15.6618 17.8246 15.6704 17.6602 15.7763 17.5923C16.919 17.1268 17.9145 16.4045 18.7362 15.4892C18.8634 15.3473 19.274 14.7383 19.398 14.7191C19.7063 14.6716 19.7534 15.3334 19.8049 15.5624C20.1211 16.9685 20.3517 18.3972 20.663 19.8049C20.6638 19.8831 20.5967 19.9914 20.5235 20.0139Z" fill="black"/>
<path d="M3.58033 20.0124C3.4245 20.0459 3.28666 20.0451 3.25067 19.8688C3.51284 18.2214 3.90834 16.5829 4.2245 14.94C4.24127 14.816 4.34351 14.6987 4.47848 14.7199C4.62491 14.7428 5.16724 15.5056 5.32347 15.6741C5.81304 16.2025 6.44576 16.7093 7.06744 17.0737C7.26172 17.1874 8.12143 17.5751 8.18523 17.6713C8.27276 17.803 8.19628 17.9445 8.06253 18.003L3.58033 20.0124Z" fill="black"/>
<path d="M16 9.49938C12 7.49901 6.5 8.99969 5 11.9996L6.49996 13.4994C9.5 15.9997 11 15.9998 12.5 15.9998C14 15.9998 17 14.4997 19 11.9996L17.5 10.7495L16 9.49938Z" fill="white"/>
</svg>
