<svg width="24" height="24" viewBox="0 0 24 24" fill="none" xmlns="http://www.w3.org/2000/svg">
<path d="M22.9506 13.1447C22.8087 12.5231 22.0385 11.8515 21.3923 12.0535C21.0017 12.1758 20.868 12.622 21.1391 12.9357C21.2823 13.1014 21.5301 13.1505 21.4913 13.4564C21.4508 13.7766 20.7911 13.8376 20.5363 13.8036C19.7081 13.694 18.2524 11.9083 17.5109 11.3173C14.2512 8.72102 9.35059 8.73124 6.22339 11.5402C5.55182 12.1439 4.28311 13.7672 3.38781 13.809C3.10438 13.822 2.53137 13.6989 2.54732 13.3382C2.56245 12.9946 3.19763 12.9501 2.98659 12.3697C2.83321 11.9476 2.33055 11.9349 1.96695 12.0601C0.971862 12.4024 0.717056 13.6654 1.33219 14.474C1.91501 15.24 2.8737 15.3595 3.77513 15.3382C3.80703 15.3374 4.0328 15.8306 4.06552 15.8858C4.17309 16.0678 4.28883 16.2449 4.41276 16.4163C4.65652 16.7537 4.93137 17.0683 5.23076 17.357C5.8283 17.9333 6.52319 18.404 7.26634 18.7721C9.09211 19.6764 11.1956 20 13.2152 19.7791C14.0348 19.6895 14.8447 19.5075 15.623 19.2347C17.1825 18.6883 18.6332 17.7492 19.5997 16.3889C19.8643 16.0163 20.0901 15.6167 20.2717 15.1975C21.5997 15.4973 23.3138 14.7345 22.9506 13.1447ZM5.53137 15.5415C5.45898 15.4527 5.07943 14.9517 5.07943 14.8879C5.07943 14.7987 5.52196 14.5689 5.62462 14.4936C6.38372 13.939 6.94487 13.1689 7.69742 12.6057C8.19108 12.2364 8.7371 11.9137 9.32687 11.7247C7.52769 13.4678 7.73014 16.3955 9.77595 17.849C8.19231 17.6012 6.55223 16.7946 5.53137 15.5415ZM13.4058 17.0098C11.3641 18.2073 8.85162 16.4449 9.2553 14.1243C9.44548 13.0314 10.4422 11.9934 11.5629 11.8588C14.6819 11.4842 15.9686 15.5063 13.4058 17.0098ZM18.668 15.2494C17.6545 16.6658 15.9195 17.5582 14.2258 17.8494C14.6798 17.4781 15.0598 17.1071 15.3612 16.5967C16.3064 14.9963 15.996 12.9227 14.5935 11.7042C14.5874 11.6728 14.6312 11.6793 14.6537 11.6846C15.0181 11.7758 15.5964 12.1272 15.9126 12.3447C16.9625 13.0674 17.7592 14.1096 18.895 14.7112C19.0385 14.7983 18.7518 15.1325 18.668 15.2494Z" fill="black"/>
<path d="M11.8462 4.01512C11.9608 3.98076 12.0839 4.00121 12.1374 4.11532C12.7383 5.29324 13.3657 6.4597 13.9612 7.64048C14.0528 7.82166 14.3988 8.43025 14.4229 8.57054C14.5109 9.07892 13.7023 8.71778 13.4581 8.67443C12.2102 8.45193 10.9239 8.48424 9.71045 8.86502C9.50595 8.84334 9.41106 8.75009 9.46791 8.53864C9.52476 8.32719 9.82742 7.82085 9.9448 7.58608C10.5154 6.44702 11.1374 5.33332 11.6863 4.18281C11.7227 4.1231 11.7763 4.03598 11.8462 4.01512Z" fill="black"/>
<path d="M3.47648 6.83201C3.62044 6.78743 3.78895 6.88722 3.92433 6.93998C4.81431 7.28641 5.77995 7.76452 6.65971 8.16493C6.87443 8.26268 8.21104 8.84591 8.26789 8.92444C8.33823 9.02137 8.32965 9.18579 8.22371 9.25369C7.08097 9.71913 6.08547 10.4414 5.2638 11.3568C5.1366 11.4987 4.72596 12.1077 4.60204 12.1269C4.29365 12.1743 4.24662 11.5126 4.19509 11.2835C3.87893 9.87741 3.64825 8.44878 3.33701 7.04101C3.33619 6.96289 3.40327 6.8545 3.47648 6.83201Z" fill="black"/>
<path d="M20.4197 6.83359C20.5755 6.80005 20.7133 6.80087 20.7493 6.97715C20.4872 8.62459 20.0917 10.263 19.7755 11.906C19.7587 12.0299 19.6565 12.1473 19.5215 12.126C19.3751 12.1031 18.8328 11.3403 18.6765 11.1718C18.187 10.6434 17.5542 10.1367 16.9326 9.77224C16.7383 9.65854 15.8786 9.27081 15.8148 9.17469C15.7272 9.043 15.8037 8.90148 15.9375 8.843L20.4197 6.83359Z" fill="black"/>
</svg>
