<svg width="24" height="24" viewBox="0 0 24 24" fill="none" xmlns="http://www.w3.org/2000/svg">
<path d="M11.5585 1.27232C11.7442 0.909225 12.2634 0.909225 12.4491 1.27232L15.5331 7.30357C15.6018 7.43794 15.7282 7.5342 15.8758 7.56529L22.6102 8.98326C22.9824 9.06182 23.1339 9.51058 22.8856 9.79869L18.3866 15.0087C18.294 15.1159 18.2517 15.2577 18.2694 15.3983L19.16 22.4344C19.2105 22.8354 18.7892 23.1274 18.4315 22.9393L12.2362 19.6786C12.0904 19.6019 11.9161 19.6018 11.7704 19.6786L5.57603 22.9393C5.21826 23.1276 4.7961 22.8355 4.84654 22.4344L5.73814 15.3983C5.75585 15.2577 5.71258 15.1159 5.61997 15.0087L1.12193 9.79869C0.873217 9.51053 1.02481 9.0617 1.39732 8.98326L8.13169 7.56529C8.27923 7.53414 8.4048 7.43782 8.47349 7.30357L11.5585 1.27232ZM9.62095 9.97936C9.35779 9.97936 9.14439 10.1928 9.14439 10.4559V13.3338C9.1447 13.5967 9.35799 13.8104 9.62095 13.8104C9.88388 13.8104 10.0972 13.5967 10.0975 13.3338V10.4559C10.0975 10.1928 9.88408 9.97939 9.62095 9.97936ZM14.3856 9.97936C14.1227 9.97961 13.91 10.1929 13.91 10.4559V13.3338C13.9103 13.5966 14.1229 13.8102 14.3856 13.8104C14.6486 13.8104 14.8618 13.5967 14.8622 13.3338V10.4559C14.8622 10.1928 14.6488 9.97936 14.3856 9.97936Z" fill="#2F2F2F"/>
</svg>
