<svg width="24" height="24" viewBox="0 0 24 24" fill="none" xmlns="http://www.w3.org/2000/svg">
<g clip-path="url(#clip0_201_399)">
<path d="M8.61013 7.85578L1.86444 9.20771C1.48368 9.28402 1.33145 9.74631 1.59238 10.0339L6.07135 14.971C6.17023 15.08 6.21608 15.227 6.19667 15.3729L5.30635 22.0641C5.25342 22.4619 5.66714 22.7568 6.02596 22.5771L12.276 19.4456C12.417 19.3749 12.583 19.3749 12.724 19.4456L18.974 22.5771C19.3329 22.7568 19.7466 22.4619 19.6937 22.0641L18.8033 15.3729C18.7839 15.227 18.8298 15.08 18.9287 14.971L23.4076 10.0339C23.6685 9.74631 23.5163 9.28402 23.1356 9.20771L16.3899 7.85577C16.2437 7.82648 16.1182 7.7335 16.0477 7.60219L12.9404 1.81965C12.7518 1.46855 12.2482 1.46855 12.0596 1.81965L8.95232 7.60219C8.88176 7.7335 8.75629 7.82648 8.61013 7.85578Z" stroke="#FBFBFB"/>
</g>
<defs>
<clipPath id="clip0_201_399">
<rect width="24" height="24" fill="white"/>
</clipPath>
</defs>
</svg>
