<svg width="24" height="24" viewBox="0 0 24 24" fill="none" xmlns="http://www.w3.org/2000/svg">
<mask id="path-1-inside-1_546_1565" fill="white">
<path d="M14.667 1C15.2193 1 15.667 1.44772 15.667 2V7.33301C15.667 7.88529 16.1147 8.33301 16.667 8.33301H22C22.5523 8.33301 23 8.78072 23 9.33301V14.667C23 15.2193 22.5523 15.667 22 15.667H16.667C16.1147 15.667 15.667 16.1147 15.667 16.667V22C15.667 22.5523 15.2193 23 14.667 23H9.33301C8.78072 23 8.33301 22.5523 8.33301 22V16.667C8.33301 16.1147 7.88529 15.667 7.33301 15.667H2C1.44772 15.667 1 15.2193 1 14.667V9.33301C1 8.78072 1.44772 8.33301 2 8.33301H7.33301C7.88529 8.33301 8.33301 7.88529 8.33301 7.33301V2C8.33301 1.44772 8.78072 1 9.33301 1H14.667ZM12 17.1338C11.5951 17.1339 11.2666 17.4622 11.2666 17.8672V20.7998C11.2666 21.2048 11.5951 21.5331 12 21.5332C12.405 21.5332 12.7334 21.2048 12.7334 20.7998V17.8672C12.7334 17.4622 12.405 17.1338 12 17.1338ZM3.2002 11.2666C2.79525 11.2666 2.46689 11.5951 2.4668 12C2.4668 12.405 2.79519 12.7334 3.2002 12.7334H6.13281C6.53782 12.7334 6.86621 12.405 6.86621 12C6.86611 11.5951 6.53776 11.2666 6.13281 11.2666H3.2002ZM17.8662 11.2666C17.4614 11.2668 17.1329 11.5952 17.1328 12C17.1328 12.4049 17.4614 12.7332 17.8662 12.7334H20.7998C21.2048 12.7334 21.5332 12.405 21.5332 12C21.5331 11.5951 21.2048 11.2666 20.7998 11.2666H17.8662ZM12 2.4668C11.5951 2.46689 11.2666 2.79525 11.2666 3.2002V6.13379C11.2668 6.53857 11.5952 6.86709 12 6.86719C12.4049 6.86719 12.7332 6.53863 12.7334 6.13379V3.2002C12.7334 2.79519 12.405 2.4668 12 2.4668Z"/>
</mask>
<path d="M14.667 1C15.2193 1 15.667 1.44772 15.667 2V7.33301C15.667 7.88529 16.1147 8.33301 16.667 8.33301H22C22.5523 8.33301 23 8.78072 23 9.33301V14.667C23 15.2193 22.5523 15.667 22 15.667H16.667C16.1147 15.667 15.667 16.1147 15.667 16.667V22C15.667 22.5523 15.2193 23 14.667 23H9.33301C8.78072 23 8.33301 22.5523 8.33301 22V16.667C8.33301 16.1147 7.88529 15.667 7.33301 15.667H2C1.44772 15.667 1 15.2193 1 14.667V9.33301C1 8.78072 1.44772 8.33301 2 8.33301H7.33301C7.88529 8.33301 8.33301 7.88529 8.33301 7.33301V2C8.33301 1.44772 8.78072 1 9.33301 1H14.667ZM12 17.1338C11.5951 17.1339 11.2666 17.4622 11.2666 17.8672V20.7998C11.2666 21.2048 11.5951 21.5331 12 21.5332C12.405 21.5332 12.7334 21.2048 12.7334 20.7998V17.8672C12.7334 17.4622 12.405 17.1338 12 17.1338ZM3.2002 11.2666C2.79525 11.2666 2.46689 11.5951 2.4668 12C2.4668 12.405 2.79519 12.7334 3.2002 12.7334H6.13281C6.53782 12.7334 6.86621 12.405 6.86621 12C6.86611 11.5951 6.53776 11.2666 6.13281 11.2666H3.2002ZM17.8662 11.2666C17.4614 11.2668 17.1329 11.5952 17.1328 12C17.1328 12.4049 17.4614 12.7332 17.8662 12.7334H20.7998C21.2048 12.7334 21.5332 12.405 21.5332 12C21.5331 11.5951 21.2048 11.2666 20.7998 11.2666H17.8662ZM12 2.4668C11.5951 2.46689 11.2666 2.79525 11.2666 3.2002V6.13379C11.2668 6.53857 11.5952 6.86709 12 6.86719C12.4049 6.86719 12.7332 6.53863 12.7334 6.13379V3.2002C12.7334 2.79519 12.405 2.4668 12 2.4668Z" fill="#2F2F2F"/>
<path d="M15.667 2L16.667 2L15.667 2ZM15.667 7.33301L14.667 7.33301L14.667 7.33301L15.667 7.33301ZM16.667 8.33301V9.33301V8.33301ZM22 8.33301L22 7.33301H22V8.33301ZM22 15.667L22 16.667L22 15.667ZM16.667 15.667L16.667 14.667L16.667 14.667L16.667 15.667ZM15.667 16.667H14.667H15.667ZM15.667 22L16.667 22V22H15.667ZM8.33301 22L7.33301 22L8.33301 22ZM8.33301 16.667L9.33301 16.667L9.33301 16.667L8.33301 16.667ZM7.33301 15.667V14.667V15.667ZM2 15.667L2 16.667H2V15.667ZM2 8.33301L2 7.33301L2 8.33301ZM7.33301 8.33301L7.33301 9.33301L7.33301 9.33301L7.33301 8.33301ZM8.33301 7.33301H9.33301H8.33301ZM8.33301 2L7.33301 2V2H8.33301ZM12 17.1338L12 16.1338L11.9998 16.1338L12 17.1338ZM12 21.5332L11.9998 22.5332H12V21.5332ZM3.2002 11.2666L3.2002 12.2666H3.2002V11.2666ZM2.4668 12L1.4668 11.9998L1.4668 12L2.4668 12ZM3.2002 12.7334L3.2002 13.7334H3.2002V12.7334ZM6.13281 12.7334L6.13281 11.7334H6.13281V12.7334ZM6.86621 12L7.86621 12L7.86621 11.9998L6.86621 12ZM6.13281 11.2666L6.13281 10.2666H6.13281V11.2666ZM17.8662 11.2666L17.8662 10.2666L17.8657 10.2666L17.8662 11.2666ZM17.1328 12L16.1328 11.9998L16.1328 12L17.1328 12ZM17.8662 12.7334L17.8657 13.7334H17.8662V12.7334ZM20.7998 12.7334L20.7998 11.7334H20.7998V12.7334ZM21.5332 12L22.5332 12L22.5332 11.9998L21.5332 12ZM20.7998 11.2666L20.7998 10.2666H20.7998V11.2666ZM12 2.4668L12 1.4668L11.9998 1.4668L12 2.4668ZM11.2666 6.13379L10.2666 6.13379L10.2666 6.13428L11.2666 6.13379ZM12 6.86719L11.9998 7.86719H12V6.86719ZM12.7334 6.13379L13.7334 6.13428V6.13379H12.7334ZM14.667 1V2V2L15.667 2L16.667 2C16.667 0.895431 15.7716 0 14.667 0V1ZM15.667 2H14.667V7.33301H15.667H16.667V2H15.667ZM15.667 7.33301L14.667 7.33301C14.667 8.43758 15.5624 9.33301 16.667 9.33301L16.667 8.33301L16.667 7.33301L16.667 7.33301L15.667 7.33301ZM16.667 8.33301V9.33301H22V8.33301V7.33301H16.667V8.33301ZM22 8.33301L22 9.33301L22 9.33301H23H24C24 8.22844 23.1046 7.33301 22 7.33301L22 8.33301ZM23 9.33301H22V14.667H23H24V9.33301H23ZM23 14.667H22H22L22 15.667L22 16.667C23.1046 16.667 24 15.7716 24 14.667H23ZM22 15.667V14.667H16.667V15.667V16.667H22V15.667ZM16.667 15.667L16.667 14.667C15.5624 14.667 14.667 15.5624 14.667 16.667L15.667 16.667L16.667 16.667L16.667 16.667L16.667 15.667ZM15.667 16.667H14.667V22H15.667H16.667V16.667H15.667ZM15.667 22L14.667 22L14.667 22V23V24C15.7716 24 16.667 23.1046 16.667 22L15.667 22ZM14.667 23V22H9.33301V23V24H14.667V23ZM9.33301 23V22V22L8.33301 22L7.33301 22C7.33301 23.1046 8.22844 24 9.33301 24V23ZM8.33301 22H9.33301V16.667H8.33301H7.33301V22H8.33301ZM8.33301 16.667L9.33301 16.667C9.33301 15.5624 8.43758 14.667 7.33301 14.667L7.33301 15.667L7.33301 16.667L7.33301 16.667L8.33301 16.667ZM7.33301 15.667V14.667H2V15.667V16.667H7.33301V15.667ZM2 15.667L2 14.667L2 14.667H1H0C0 15.7716 0.895431 16.667 2 16.667L2 15.667ZM1 14.667H2V9.33301H1H0V14.667H1ZM1 9.33301H2H2L2 8.33301L2 7.33301C0.895431 7.33301 0 8.22844 0 9.33301H1ZM2 8.33301V9.33301H7.33301V8.33301V7.33301H2V8.33301ZM7.33301 8.33301L7.33301 9.33301C8.43758 9.33301 9.33301 8.43758 9.33301 7.33301L8.33301 7.33301L7.33301 7.33301L7.33301 7.33301L7.33301 8.33301ZM8.33301 7.33301H9.33301V2H8.33301H7.33301V7.33301H8.33301ZM8.33301 2L9.33301 2L9.33301 2V1V0C8.22844 0 7.33301 0.895431 7.33301 2L8.33301 2ZM9.33301 1V2H14.667V1V0H9.33301V1ZM12 17.1338L11.9998 16.1338C11.043 16.134 10.2666 16.9097 10.2666 17.8672H11.2666H12.2666C12.2666 18.0148 12.1472 18.1338 12.0002 18.1338L12 17.1338ZM11.2666 17.8672H10.2666V20.7998H11.2666H12.2666V17.8672H11.2666ZM11.2666 20.7998H10.2666C10.2666 21.7573 11.043 22.533 11.9998 22.5332L12 21.5332L12.0002 20.5332C12.1472 20.5332 12.2666 20.6522 12.2666 20.7998H11.2666ZM12 21.5332V22.5332C12.9573 22.5332 13.7334 21.7571 13.7334 20.7998H12.7334H11.7334C11.7334 20.6525 11.8527 20.5332 12 20.5332V21.5332ZM12.7334 20.7998H13.7334V17.8672H12.7334H11.7334V20.7998H12.7334ZM12.7334 17.8672H13.7334C13.7334 16.9099 12.9573 16.1338 12 16.1338V17.1338V18.1338C11.8527 18.1338 11.7334 18.0145 11.7334 17.8672H12.7334ZM3.2002 11.2666L3.2002 10.2666C2.24272 10.2666 1.46703 11.043 1.4668 11.9998L2.4668 12L3.4668 12.0002C3.46676 12.1472 3.34777 12.2666 3.2002 12.2666L3.2002 11.2666ZM2.4668 12L1.4668 12C1.4668 12.9573 2.2429 13.7334 3.2002 13.7334L3.2002 12.7334L3.2002 11.7334C3.34747 11.7334 3.4668 11.8527 3.4668 12L2.4668 12ZM3.2002 12.7334V13.7334H6.13281V12.7334V11.7334H3.2002V12.7334ZM6.13281 12.7334L6.13281 13.7334C7.09011 13.7334 7.86621 12.9573 7.86621 12L6.86621 12L5.86621 12C5.86621 11.8527 5.98554 11.7334 6.13281 11.7334L6.13281 12.7334ZM6.86621 12L7.86621 11.9998C7.86598 11.043 7.09028 10.2666 6.13281 10.2666L6.13281 11.2666L6.13281 12.2666C5.98524 12.2666 5.86625 12.1472 5.86621 12.0002L6.86621 12ZM6.13281 11.2666V10.2666H3.2002V11.2666V12.2666H6.13281V11.2666ZM17.8662 11.2666L17.8657 10.2666C16.9093 10.2671 16.133 11.0426 16.1328 11.9998L17.1328 12L18.1328 12.0002C18.1328 12.1478 18.0136 12.2665 17.8667 12.2666L17.8662 11.2666ZM17.1328 12L16.1328 12C16.1328 12.9577 16.9095 13.7329 17.8657 13.7334L17.8662 12.7334L17.8667 11.7334C18.0133 11.7335 18.1328 11.8521 18.1328 12L17.1328 12ZM17.8662 12.7334V13.7334H20.7998V12.7334V11.7334H17.8662V12.7334ZM20.7998 12.7334L20.7998 13.7334C21.7571 13.7334 22.5332 12.9573 22.5332 12L21.5332 12L20.5332 12C20.5332 11.8527 20.6525 11.7334 20.7998 11.7334L20.7998 12.7334ZM21.5332 12L22.5332 11.9998C22.533 11.043 21.7573 10.2666 20.7998 10.2666L20.7998 11.2666L20.7998 12.2666C20.6522 12.2666 20.5332 12.1472 20.5332 12.0002L21.5332 12ZM20.7998 11.2666V10.2666H17.8662V11.2666V12.2666H20.7998V11.2666ZM12 2.4668L11.9998 1.4668C11.043 1.46703 10.2666 2.24272 10.2666 3.2002H11.2666H12.2666C12.2666 3.34777 12.1472 3.46676 12.0002 3.4668L12 2.4668ZM11.2666 3.2002H10.2666V6.13379H11.2666H12.2666V3.2002H11.2666ZM11.2666 6.13379L10.2666 6.13428C10.2671 7.09071 11.0426 7.86696 11.9998 7.86719L12 6.86719L12.0002 5.86719C12.1478 5.86722 12.2665 5.98643 12.2666 6.1333L11.2666 6.13379ZM12 6.86719V7.86719C12.9577 7.86719 13.7329 7.09053 13.7334 6.13428L12.7334 6.13379L11.7334 6.1333C11.7335 5.98672 11.8521 5.86719 12 5.86719V6.86719ZM12.7334 6.13379H13.7334V3.2002H12.7334H11.7334V6.13379H12.7334ZM12.7334 3.2002H13.7334C13.7334 2.2429 12.9573 1.4668 12 1.4668V2.4668V3.4668C11.8527 3.4668 11.7334 3.34747 11.7334 3.2002H12.7334Z" fill="#2F2F2F" mask="url(#path-1-inside-1_546_1565)"/>
</svg>
