<svg width="25" height="24" viewBox="0 0 25 24" fill="none" xmlns="http://www.w3.org/2000/svg">
<path d="M15.5 0C16.0523 0 16.5 0.447715 16.5 1V7C16.5 7.55228 16.9477 8 17.5 8H23.5C24.0523 8 24.5 8.44771 24.5 9V15C24.5 15.5523 24.0523 16 23.5 16H17.5C16.9477 16 16.5 16.4477 16.5 17V23C16.5 23.5523 16.0523 24 15.5 24H9.5C8.94771 24 8.5 23.5523 8.5 23V17C8.5 16.4477 8.05228 16 7.5 16H1.5C0.947715 16 0.5 15.5523 0.5 15V9C0.5 8.44771 0.947715 8 1.5 8H7.5C8.05228 8 8.5 7.55228 8.5 7V1C8.5 0.447715 8.94771 0 9.5 0H15.5ZM12.5 17.5996C12.0582 17.5996 11.7002 17.9586 11.7002 18.4004V21.5996C11.7002 22.0414 12.0582 22.4004 12.5 22.4004C12.9418 22.4004 13.2998 22.0414 13.2998 21.5996V18.4004C13.2998 17.9586 12.9418 17.5996 12.5 17.5996ZM2.90039 11.2002C2.45856 11.2002 2.09961 11.5582 2.09961 12C2.09961 12.4418 2.45856 12.7998 2.90039 12.7998H6.09961C6.54144 12.7998 6.90039 12.4418 6.90039 12C6.90039 11.5582 6.54144 11.2002 6.09961 11.2002H2.90039ZM18.9004 11.2002C18.4586 11.2002 18.0996 11.5582 18.0996 12C18.0996 12.4418 18.4586 12.7998 18.9004 12.7998H22.0996C22.5414 12.7998 22.9004 12.4418 22.9004 12C22.9004 11.5582 22.5414 11.2002 22.0996 11.2002H18.9004ZM12.5 1.59961C12.0582 1.59961 11.7002 1.95856 11.7002 2.40039V5.59961C11.7002 6.04144 12.0582 6.40039 12.5 6.40039C12.9418 6.40039 13.2998 6.04144 13.2998 5.59961V2.40039C13.2998 1.95856 12.9418 1.59961 12.5 1.59961Z" fill="#E70012"/>
</svg>
