<svg width="25" height="24" viewBox="0 0 25 24" fill="none" xmlns="http://www.w3.org/2000/svg">
<path d="M24.5 1.5V22.6582L23 24H2L0.5 22.5V1.33984L2 0H23L24.5 1.5ZM3.5 20C2.94772 20 2.50001 20.4477 2.5 21C2.5 21.5523 2.94772 22 3.5 22C4.05228 22 4.5 21.5523 4.5 21C4.49999 20.4477 4.05228 20 3.5 20ZM21.5 20C20.9477 20 20.5 20.4477 20.5 21C20.5 21.5523 20.9477 22 21.5 22C22.0523 22 22.5 21.5523 22.5 21C22.5 20.4477 22.0523 20 21.5 20ZM9.56836 15.2891V20H15.1904V15.2891H9.56836ZM7.99414 4L5.5 6.01855V9.08008H11.7559V6.97461H13.0029V9.83984H11.1875L9.56836 11.4463V14.3555H15.1904V12.8789H17.5098L19.5 10.9033V6.01855L17.0059 4H7.99414ZM3.5 2C2.94772 2 2.50001 2.44772 2.5 3C2.5 3.55228 2.94772 4 3.5 4C4.05228 4 4.5 3.55228 4.5 3C4.49999 2.44772 4.05228 2 3.5 2ZM21.5 2C20.9477 2 20.5 2.44772 20.5 3C20.5 3.55228 20.9477 4 21.5 4C22.0523 4 22.5 3.55228 22.5 3C22.5 2.44772 22.0523 2 21.5 2Z" fill="#E70012"/>
</svg>
