<svg width="57" height="57" viewBox="0 0 57 57" fill="none" xmlns="http://www.w3.org/2000/svg">
<rect width="57" height="57" rx="28.5" fill="#FBFBFB"/>
<circle cx="28.3248" cy="28.5001" r="22.94" fill="#FBFBFB" stroke="#E70012" stroke-width="2"/>
<g clip-path="url(#clip0_543_1458)">
<ellipse cx="28.4997" cy="26.6472" rx="14.82" ry="12.9675" fill="#E70012"/>
<circle cx="28.4998" cy="23.5604" r="7.41" fill="#FBFBFB"/>
<path d="M19.8546 37.5137L19.8545 36.5025C19.8545 35.7382 20.2054 35.0162 20.8064 34.544C25.3217 30.9964 31.6776 30.9964 36.1929 34.5441C36.7938 35.0162 37.1447 35.7382 37.1447 36.5024V37.5136C37.1447 40.038 35.0983 42.0844 32.5738 42.0844H24.4255C21.9011 42.0844 19.8547 40.0381 19.8546 37.5137Z" fill="#E70012" stroke="#FBFBFB" stroke-width="1.235"/>
<rect x="24.7949" y="34.6753" width="1.235" height="3.705" rx="0.6175" fill="#FBFBFB"/>
<rect x="30.9697" y="34.6753" width="1.235" height="3.705" rx="0.6175" fill="#FBFBFB"/>
<path d="M17.7925 27.5318C17.8368 30.1419 17.8669 32.2018 17.0078 32.2164C16.1487 32.231 15.2662 30.7851 15.104 27.6718C14.9418 24.5586 15.6357 22.3823 16.4948 22.3677C17.3539 22.3531 17.7394 24.4063 17.7925 27.5318Z" fill="#FBFBFB"/>
<path d="M39.6303 26.9252C39.7667 24.3183 39.8792 22.2613 40.7373 22.3061C41.5954 22.351 42.3757 23.8546 42.3221 26.9715C42.2685 30.0885 41.4257 32.2116 40.5676 32.1667C39.7095 32.1218 39.467 30.0469 39.6303 26.9252Z" fill="#FBFBFB"/>
</g>
<defs>
<clipPath id="clip0_543_1458">
<rect width="29.64" height="29.64" fill="white" transform="translate(43.3198 43.3198) rotate(-180)"/>
</clipPath>
</defs>
</svg>
