<svg width="40" height="40" viewBox="0 0 40 40" fill="none" xmlns="http://www.w3.org/2000/svg">
<path d="M20 0.00195313C24.8581 0.00195601 27.503 2.79639 28.9062 5.54102C29.6044 6.90661 30.0012 8.26714 30.2236 9.28223C30.335 9.79039 30.4037 10.2153 30.4443 10.5146C30.4646 10.664 30.4779 10.783 30.4863 10.8652C30.4905 10.9061 30.4941 10.9386 30.4961 10.9609C30.497 10.9718 30.4976 10.9811 30.498 10.9873C30.4982 10.9898 30.498 10.9925 30.498 10.9941L30.499 10.9971V10.998C30.4988 10.9984 30.4864 10.9987 30 11.0342L29.9873 11.0352H36C38.2091 11.0352 40 12.826 40 15.0352V36C40 38.2091 38.2091 40 36 40H4C1.79089 40 4.39115e-05 38.2091 0 36V15.0352C0 12.826 1.79086 11.0352 4 11.0352H10.0127C10.0085 11.0349 10.0043 11.0345 10 11.0342C9.51353 10.9987 9.50124 10.9984 9.50098 10.998V10.9971L9.50195 10.9941C9.502 10.9925 9.50175 10.9898 9.50195 10.9873C9.50244 10.9811 9.50296 10.9718 9.50391 10.9609C9.50586 10.9386 9.5095 10.906 9.51367 10.8652C9.52209 10.783 9.53541 10.664 9.55566 10.5146C9.59628 10.2153 9.66504 9.79039 9.77637 9.28223C9.9988 8.26714 10.3956 6.90661 11.0938 5.54102C12.497 2.79639 15.1419 0.00195042 20 0.00195313ZM20 1.00195C15.6278 1.00195 13.2726 3.47463 11.9834 5.99609C11.3357 7.26315 10.9632 8.53648 10.7529 9.49609C10.6481 9.97453 10.5844 10.3729 10.5469 10.6494C10.5282 10.787 10.5152 10.8948 10.5078 10.9668C10.505 10.9948 10.5033 11.0181 10.502 11.0352H29.498C29.4967 11.0181 29.495 10.9948 29.4922 10.9668C29.4848 10.8948 29.4718 10.787 29.4531 10.6494C29.4156 10.3729 29.3519 9.97453 29.2471 9.49609C29.0368 8.53648 28.6643 7.26315 28.0166 5.99609C26.7274 3.47464 24.3722 1.00196 20 1.00195Z" fill="#FBFBFB"/>
</svg>
