<svg width="128" height="128" viewBox="0 0 128 128" fill="none" xmlns="http://www.w3.org/2000/svg">
<path d="M6 13C4.067 13 2.5 14.567 2.5 16.5C2.5 18.433 4.067 20 6 20V13ZM119 33.5L122.327 34.5858C122.675 33.5199 122.491 32.352 121.833 31.4445C121.174 30.5371 120.121 30 119 30V33.5ZM103.5 81V84.5C105.015 84.5 106.357 83.5257 106.827 82.0858L103.5 81ZM39 96L36.6062 93.4466C35.5585 94.4289 35.2171 95.9515 35.7452 97.2871C36.2734 98.6226 37.5638 99.5 39 99.5V96ZM111.25 99.5C113.183 99.5 114.75 97.933 114.75 96C114.75 94.067 113.183 92.5 111.25 92.5V99.5ZM23.7776 16.5L26.5403 14.3512C25.8772 13.4986 24.8576 13 23.7776 13V16.5ZM55 81L52.6062 78.4466L36.6062 93.4466L39 96L41.3938 98.5534L57.3938 83.5534L55 81ZM39 96V99.5H111.25V96V92.5H39V96ZM6 16.5V20H23.7776V16.5V13H6V16.5ZM23.7776 16.5L21.0149 18.6488L34.2373 35.6488L37 33.5L39.7627 31.3512L26.5403 14.3512L23.7776 16.5ZM55 81L58.2729 79.7597L49.2729 56.0097L46 57.25L42.7271 58.4903L51.7271 82.2403L55 81ZM46 57.25L49.2729 56.0097L40.2729 32.2597L37 33.5L33.7271 34.7403L42.7271 58.4903L46 57.25ZM119 33.5L115.673 32.4142L107.923 56.1642L111.25 57.25L114.577 58.3358L122.327 34.5858L119 33.5ZM111.25 57.25L107.923 56.1642L100.173 79.9142L103.5 81L106.827 82.0858L114.577 58.3358L111.25 57.25ZM46 57.25V60.75H111.25V57.25V53.75H46V57.25ZM93 33.5V37H119V33.5V30H93V33.5ZM103.5 81V77.5H87V81V84.5H103.5V81ZM93 33.5L89.5276 33.0614L83.5276 80.5614L87 81L90.4724 81.4386L96.4724 33.9386L93 33.5ZM87 81V77.5H71V81V84.5H87V81ZM71 81V77.5H55V81V84.5H71V81ZM37 33.5V37H65V33.5V30H37V33.5ZM65 33.5V37H93V33.5V30H65V33.5ZM71 81L74.4724 80.5614L68.4724 33.0614L65 33.5L61.5276 33.9386L67.5276 81.4386L71 81Z" fill="#2F2F2F"/>
<circle cx="55" cy="106" r="8.5" stroke="#2F2F2F" stroke-width="7"/>
<circle cx="97" cy="106" r="8.5" stroke="#2F2F2F" stroke-width="7"/>
</svg>
