<svg width="26" height="31" viewBox="0 0 26 31" fill="none" xmlns="http://www.w3.org/2000/svg">
<path d="M13 0.5C16.2857 0.500002 18.0454 2.7138 18.958 4.7998C19.4153 5.84513 19.6743 6.88453 19.8193 7.6582C19.8921 8.04609 19.9373 8.3701 19.9639 8.59863C19.9771 8.71275 19.9857 8.80327 19.9912 8.86621C19.9939 8.89747 19.9958 8.92227 19.9971 8.93945C19.9977 8.94798 19.9977 8.95512 19.998 8.95996C19.9982 8.96236 19.9989 8.96436 19.999 8.96582V8.96875L19.5 9H22C24.2091 9 26 10.7909 26 13V27C26 29.2091 24.2091 31 22 31H4C1.79086 31 6.44266e-08 29.2091 0 27V13C6.44266e-08 10.7909 1.79086 9 4 9H6.5L6.00098 8.96875V8.96582C6.00107 8.96437 6.00179 8.96235 6.00195 8.95996C6.00228 8.95512 6.00229 8.94798 6.00293 8.93945C6.00421 8.92227 6.00605 8.89746 6.00879 8.86621C6.0143 8.80327 6.02289 8.71275 6.03613 8.59863C6.06266 8.3701 6.10794 8.04609 6.18066 7.6582C6.32573 6.88453 6.58468 5.84513 7.04199 4.7998C7.95462 2.7138 9.7143 0.499998 13 0.5ZM13 1.5C10.2858 1.5 8.7954 3.28625 7.95801 5.2002C7.54042 6.15469 7.29927 7.11555 7.16309 7.8418C7.09522 8.20374 7.05452 8.50496 7.03027 8.71387C7.01816 8.81826 7.00963 8.89989 7.00488 8.9541C7.00328 8.97248 7.00191 8.98791 7.00098 9H18.999C18.9981 8.98791 18.9967 8.97247 18.9951 8.9541C18.9904 8.89989 18.9818 8.81826 18.9697 8.71387C18.9455 8.50496 18.9048 8.20374 18.8369 7.8418C18.7007 7.11555 18.4596 6.15469 18.042 5.2002C17.2046 3.28626 15.7142 1.5 13 1.5Z" fill="#FBFBFB"/>
</svg>
