<svg width="25" height="24" viewBox="0 0 25 24" fill="none" xmlns="http://www.w3.org/2000/svg">
<path d="M24.4995 13.9054V13.999C24.4625 14.0235 24.4772 14.0878 24.4767 14.1277C24.4646 15.3392 24.2666 16.5624 23.818 17.6797C23.1653 19.305 21.973 20.6983 20.4211 21.4051L20.37 21.3738C20.5968 20.9462 20.7791 20.4883 20.8758 20.0059C21.4985 16.907 18.8935 15.0249 16.1898 15.8109C14.2471 16.3752 13.1716 18.2488 13.4774 20.3351C13.7549 22.2289 15.5503 23.1942 17.2439 23.1442C17.2526 23.183 17.2318 23.1915 17.21 23.2139C16.8723 23.5611 15.2966 23.8084 14.7964 23.868C10.5616 24.3711 5.75508 23.701 1.76681 22.1534C1.57137 22.0774 0.686831 21.7391 0.587593 21.6333C0.545062 21.5875 0.561771 21.5173 0.5 21.5259V21.4791L1.42707 19.9554C2.76577 17.0921 2.79818 13.8304 3.68677 10.815C4.30448 8.71859 5.16572 6.62695 6.77328 5.16976C10.0269 2.22136 15.5204 2.19317 17.8647 6.34721C17.9153 6.43709 17.9498 6.63067 18.0779 6.58547C18.1447 6.56153 18.6348 5.44631 18.6991 5.29155C19.3381 3.75991 19.7993 2.1235 20.0722 0.47327C20.1001 0.304151 20.0591 -0.0473811 20.2889 0.04941C20.4545 0.119078 20.7188 0.307342 20.8808 0.412111C21.4692 0.792361 22.0965 1.27578 22.6023 1.76984C22.6818 1.84749 22.9876 2.14371 23.0271 2.21445C23.0555 2.2655 23.0631 2.30964 23.0271 2.35804C21.9649 3.56261 20.851 4.78579 19.9269 6.11268C19.77 6.33817 19.2439 7.10133 19.213 7.33373C19.2044 7.39809 19.2034 7.44754 19.2687 7.4752C22.2337 7.8012 24.5668 10.7315 24.4762 13.848L24.4995 13.9049V13.9054Z" fill="#E70012"/>
</svg>
